<svg xmlns="http://www.w3.org/2000/svg" aria-hidden="true" style="position:absolute;width:0;height:0;overflow:hidden"><defs>
<symbol id="icon-youtube-logo" viewBox="0 0 32 32"><path fill="#fff" d="M31.68 9.556s-.312-2.22-1.272-3.198c-1.216-1.285-2.58-1.291-3.206-1.364-4.477-.328-11.194-.328-11.194-.328h-.015s-6.717 0-11.194.328c-.626.073-1.99.079-3.208 1.364-.96.978-1.271 3.2-1.271 3.2S0 12.162 0 14.771v2.446c0 2.607.32 5.214.32 5.214s.312 2.222 1.271 3.2c1.219 1.283 2.818 1.243 3.529 1.378 2.56.247 10.88.323 10.88.323s6.725-.009 11.202-.335c.625-.076 1.99-.082 3.206-1.365.96-.978 1.272-3.2 1.272-3.2s.32-2.606.32-5.214v-2.444c0-2.607-.32-5.216-.32-5.216zM12.696 20.18v-9.054l8.645 4.542-8.645 4.512z" style="fill:var(--color1, #fff)"/></symbol>
<symbol id="icon-watsap-logo" viewBox="0 0 32 32"><path fill="#99999d" d="M27.337 4.651A15.817 15.817 0 0 0 16.113-.001h-.047.002C7.282-.001.137 7.112.13 15.855v.019c0 2.912.789 5.64 2.166 7.982l-.04-.074L0 31.999l8.446-2.206c2.2 1.216 4.823 1.931 7.614 1.931h.007c8.782 0 15.931-7.115 15.934-15.858v-.041a15.67 15.67 0 0 0-4.662-11.173l-.001-.001zM16.069 29.047h-.007c-2.377 0-4.709-.635-6.741-1.838l-.482-.286-5.013 1.31 1.337-4.864-.315-.498a12.977 12.977 0 0 1-2.025-6.997v-.018.001C2.828 8.591 8.766 2.68 16.073 2.68c3.536 0 6.862 1.371 9.362 3.863a13.03 13.03 0 0 1 3.874 9.288v.04-.002c-.002 7.269-5.943 13.179-13.243 13.179zm7.261-9.87c-.398-.199-2.354-1.157-2.72-1.289s-.631-.199-.896.197c-.265.398-1.029 1.289-1.259 1.554-.233.265-.464.297-.864.098-.398-.197-1.68-.617-3.2-1.966a12.052 12.052 0 0 1-2.187-2.688l-.03-.055c-.229-.398 0-.594.176-.809.432-.533.864-1.093.997-1.355.133-.265.066-.496-.034-.695-.098-.199-.896-2.149-1.227-2.942-.322-.773-.651-.667-.896-.681a15.222 15.222 0 0 0-.667-.014h-.101.005c-.423.012-.799.2-1.059.494l-.001.002c-.366.398-1.394 1.355-1.394 3.305s1.426 3.835 1.627 4.098c.199.265 2.807 4.267 6.8 5.984.949.407 1.691.651 2.27.834a5.523 5.523 0 0 0 2.54.153l-.033.005c.766-.114 2.354-.96 2.688-1.886.331-.926.331-1.719.231-1.883-.098-.165-.366-.265-.763-.462z" style="fill:var(--color2, #99999d)"/></symbol>
<symbol id="icon-vk-logo" viewBox="0 0 32 32"><path fill="#fff" d="M31.83 23.36a1.992 1.992 0 0 0-.114-.218l.006.01c-.556-1-1.616-2.228-3.182-3.684l-.034-.032-.016-.016-.016-.018h-.018c-.71-.678-1.16-1.132-1.35-1.366-.344-.444-.42-.894-.232-1.35.132-.344.632-1.072 1.5-2.182.454-.588.816-1.06 1.08-1.416 1.924-2.554 2.756-4.188 2.5-4.9l-.1-.164c-.064-.1-.236-.192-.514-.276a2.616 2.616 0 0 0-1.084-.038l.016-.002-4.798.032a.608.608 0 0 0-.337.009l.004-.001-.218.05-.082.042-.068.05a.768.768 0 0 0-.181.174l-.001.002a1.123 1.123 0 0 0-.163.282l-.003.008a26.838 26.838 0 0 1-1.854 3.88l.07-.13c-.41.688-.788 1.286-1.132 1.79a8.68 8.68 0 0 1-.873 1.122l.005-.006a6.02 6.02 0 0 1-.62.566l-.012.009c-.19.144-.334.206-.434.182a8.175 8.175 0 0 1-.367-.084l.085.018a1.113 1.113 0 0 1-.373-.402l-.003-.006a1.786 1.786 0 0 1-.191-.642l-.001-.008a7.057 7.057 0 0 1-.058-.66v-.014a15.084 15.084 0 0 1 .011-.829l-.001.029c.01-.346.016-.58.016-.7 0-.422.008-.88.024-1.374l.042-1.176c.012-.288.016-.594.016-.916s-.02-.574-.058-.758a2.553 2.553 0 0 0-.181-.55l.007.016a.9.9 0 0 0-.337-.398l-.003-.002a1.869 1.869 0 0 0-.547-.221l-.013-.003a10.758 10.758 0 0 0-2.179-.216h-.075.004c-2.064-.022-3.392.11-3.98.4a2.238 2.238 0 0 0-.632.498l-.002.002c-.2.244-.228.376-.084.4.666.1 1.14.338 1.416.716l.1.2c.08.144.156.4.234.766s.128.772.15 1.216c.056.81.056 1.504 0 2.082-.056.58-.108 1.028-.16 1.35a2.703 2.703 0 0 1-.43 1.16l.006-.01a.284.284 0 0 1-.081.081l-.001.001a1.226 1.226 0 0 1-.45.084c-.156 0-.344-.078-.566-.234a4.007 4.007 0 0 1-.687-.635l-.005-.005a8.463 8.463 0 0 1-.786-1.101l-.022-.039a18.097 18.097 0 0 1-.882-1.616l-.052-.118-.266-.484a21.863 21.863 0 0 1-.574-1.112l-.108-.246a21.065 21.065 0 0 1-.705-1.55l-.063-.174a1.109 1.109 0 0 0-.397-.532l-.003-.002-.082-.05a1.737 1.737 0 0 0-.639-.248l-.011-.002-4.566.034c-.466 0-.782.106-.95.316l-.066.1a.536.536 0 0 0-.051.23l.001.04v-.002c0 .12.034.272.1.448a52.292 52.292 0 0 0 2.318 4.819l-.144-.287a48.44 48.44 0 0 0 2.162 3.718l-.122-.202c.58.888 1.168 1.728 1.768 2.516s.996 1.294 1.19 1.516c.194.222.348.388.46.5l.416.4c.266.266.658.586 1.174.958s1.088.74 1.716 1.1c.628.36 1.358.654 2.19.882.834.228 1.644.32 2.434.276h1.916c.388-.034.682-.156.882-.368l.066-.082c.054-.089.097-.191.124-.3l.002-.008c.04-.14.06-.292.06-.46a5.51 5.51 0 0 1 .112-1.325l-.006.036c.084-.382.178-.672.284-.866.159-.296.374-.541.634-.73l.006-.004c.037-.019.081-.039.126-.056l.008-.002c.266-.088.58-.002.942.26.36.26.7.582 1.016.966.318.382.698.812 1.14 1.29.446.48.834.834 1.168 1.068l.334.2c.22.132.51.254.866.366.354.11.666.14.932.082l4.266-.066c.42 0 .75-.07.982-.208.234-.14.372-.292.418-.46a1.3 1.3 0 0 0 .007-.575l.002.009a2.13 2.13 0 0 0-.118-.44z" style="fill:var(--color1, #fff)"/></symbol>
<symbol id="icon-triangle-video-btn" viewBox="0 0 27 32"><path fill="#cc1616" d="M27.429 16 0 31.835V.164l27.429 15.835z" style="fill:var(--color3, #cc1616)"/></symbol>
<symbol id="icon-triangle-menu" viewBox="0 0 64 32"><path fill="#dfab7d" d="M32 32 4.288 8h55.424L32 32z" style="fill:var(--color4, #dfab7d)"/></symbol>
<symbol id="icon-square-border" viewBox="0 0 32 32"><path fill="none" stroke="#c48f65" stroke-width="1.067" d="M5.333.533h21.333a4.8 4.8 0 0 1 4.8 4.8v21.333a4.8 4.8 0 0 1-4.8 4.8H5.333a4.8 4.8 0 0 1-4.8-4.8V5.333a4.8 4.8 0 0 1 4.8-4.8z" style="stroke:var(--color5, #c48f65)"/></symbol>
<symbol id="icon-plus" viewBox="0 0 32 32"><path fill="#c48f65" d="M18.804 13.917h10.752v6.703H18.804v11.101h-7.401V20.62H.651v-6.703h10.752V2.816h7.401v11.101z" style="fill:var(--color5, #c48f65)"/></symbol>
<symbol id="icon-minus" viewBox="0 0 139 32"><path fill="#c48f65" d="M138.507 26.027H.267V1.707h138.24v24.32z" style="fill:var(--color5, #c48f65)"/></symbol>
<symbol id="icon-menu-burger" viewBox="0 0 70 32"><path fill="#c19d7a" d="M0 0h70v4H0V0zm18.062 14H70v4H18.062v-4zM70 28H0v4h70v-4z" style="fill:var(--color6, #c19d7a)"/></symbol>
<symbol id="icon-measurements-mob" viewBox="0 0 32 32"><path d="M16.288.32H5.132a.59.59 0 0 0-.589.589V.93.929v29.792c0 .353.256.609.608.609h11.124a.59.59 0 0 0 .589-.589v-.022.001V.929c.032-.352-.256-.608-.576-.608zm-.928 29.472-9.28-.032v-.768h3.082c.419 0 .758-.34.758-.758v-.01.001-.01a.758.758 0 0 0-.758-.758H6.081v-1.503h1.226c.419 0 .758-.34.758-.758v-.01.001-.011a.758.758 0 0 0-.758-.758H6.082v-1.503h1.226c.419 0 .758-.34.758-.758v-.012.001-.01a.758.758 0 0 0-.758-.758h-.01.001l-1.216-.032v-1.503h3.082c.419 0 .758-.34.758-.758v-.01.001-.011a.758.758 0 0 0-.758-.758h-.01.001l-3.072-.032v-1.503H7.31c.419 0 .758-.34.758-.758v-.012.001-.01a.758.758 0 0 0-.758-.758H6.085v-1.503h1.226a.758.758 0 0 0 .758-.758v-.012.001-.01a.758.758 0 0 0-.758-.758H6.086v-1.503h3.082a.758.758 0 0 0 .758-.758v-.012.001-.01a.758.758 0 0 0-.758-.758H6.087V7.652h1.226c.419 0 .758-.34.758-.758v-.012.001-.01a.758.758 0 0 0-.758-.758H6.088V4.612h1.226c.419 0 .758-.34.758-.758v-.012.001-.01a.758.758 0 0 0-.758-.758H6.089V1.987h9.28v27.809zM26.719.352 19.295.32c-.352 0-.64.288-.608.608l-.032 21.44L23.007 32l4.32-9.631V.94a.59.59 0 0 0-.589-.589h-.021.001zm-1.92 22.592h.608l-2.4 5.313-2.4-5.313h.618c.419 0 .758-.34.758-.758V22.166a.758.758 0 0 0-.758-.758H20.16V7.68h5.6l.032 13.728-.992.033h-.01a.758.758 0 0 0-.758.758v.01-.001c0 .416.352.768.768.735zm1.024-16.8-5.632.032.032-4.288h5.6v4.257z"/></symbol>
<symbol id="icon-installation" viewBox="0 0 32 32"><path d="m18.725 12.7.275-.149v-9.05c0-1.65-1.35-3-3-3s-3 1.35-3 3v9.05l.275.15c.298.148.5.45.5.8 0 .35-.175.65-.5.8l-.275.15v2.05h2.5v6.625c-.15.075-.275.15-.375.275a1.192 1.192 0 0 0-.299.904V24.3l.224 2.2h1.901l.224-2.2a1.193 1.193 0 0 0-.301-.901l.001.001c-.1-.125-.225-.2-.375-.275V16.5H19v-2.05l-.275-.15a.89.89 0 0 1 0-1.6zM16.05 25.5h-.1l-.125-1.3c0-.075.025-.125.05-.15s.05-.05.125-.05.125.025.125.05.05.075.05.15l-.125 1.3zM16 1.5c.925 0 1.7.65 1.925 1.5h-3.85c.224-.85 1-1.5 1.925-1.5zm2 13.525v.475h-4v-.475c.469-.35.77-.902.775-1.524V13.5c0-.625-.3-1.175-.775-1.525V4h4v7.975c-.469.35-.77.902-.775 1.524v.001c0 .625.3 1.175.775 1.525zM3.275 14.3 3 14.45v2.05h2.5v11.625c-.15.075-.275.15-.375.275a1.192 1.192 0 0 0-.299.905V29.3l.225 2.2h1.9l.224-2.2a1.193 1.193 0 0 0-.301-.902l.001.001c-.1-.125-.225-.2-.375-.275V16.499H9v-2.05l-.275-.15a.892.892 0 0 1-.5-.8c0-.35.175-.65.5-.8l.275-.15v-9.05c0-1.65-1.35-3-3-3s-2.999 1.35-2.999 3v9.05l.275.15a.89.89 0 0 1 0 1.6zM6.05 30.5h-.1l-.124-1.3c0-.075.024-.125.05-.15A.191.191 0 0 1 6 29c.075 0 .125.025.125.05s.05.075.05.15l-.125 1.3zM8 15.025v.475H4v-.475c.469-.35.77-.902.775-1.524v-.004c0-.623-.303-1.176-.77-1.518L4 11.975V4h4v7.975c-.469.35-.77.902-.775 1.524v.001c0 .625.3 1.175.775 1.525zM6 1.5c.925 0 1.7.65 1.925 1.5h-3.85c.225-.85 1-1.5 1.925-1.5zM28.725 12.7l.275-.149v-9.05c0-1.65-1.35-3-3-3s-2.999 1.35-2.999 3v9.05l.275.15c.298.148.5.45.5.8 0 .35-.175.65-.5.8l-.275.15v2.05h2.5v1.625c-.15.075-.275.15-.375.275a1.194 1.194 0 0 0-.3.905v-.005l.225 2.2h1.9l.224-2.2a1.193 1.193 0 0 0-.301-.901l.001.001c-.1-.125-.225-.2-.375-.275v-1.625H29v-2.05l-.275-.15a.89.89 0 0 1 0-1.6zm-2.675 7.8h-.1l-.126-1.3c0-.075.025-.125.05-.15a.19.19 0 0 1 .124-.05c.075 0 .125.025.125.05.025.025.05.075.05.15l-.125 1.3zM26 1.5c.925 0 1.7.65 1.925 1.5h-3.85c.225-.85 1-1.5 1.925-1.5zm2 13.525v.475h-4v-.475c.469-.35.77-.902.775-1.524V13.5c0-.625-.3-1.175-.775-1.525V4h4v7.975c-.469.35-.77.902-.775 1.524v.001c0 .625.3 1.175.775 1.525z"/></symbol>
<symbol id="icon-designe" viewBox="0 0 32 32"><path d="M1.5 26H.501v.004a4.246 4.246 0 0 0 4.246 4.246h26.754v-26H5.251V.5h-.505A4.246 4.246 0 0 0 .5 4.746V26h1v-.006a3.243 3.243 0 0 1 3.243-3.243h.507v-17.5h25.251v24H4.745a3.243 3.243 0 0 1-3.243-3.243V26zm2.75-4.225a4.233 4.233 0 0 0-2.745 1.469l-.005.006V4.75c0-1.625 1.2-2.975 2.75-3.2v20.225z"/><path d="M25.75 7.25h-3v16.875l1.5 3 1.5-3V7.25zm-1 1V11h-1V8.25h1zm-.5 16.625-.5-1V12h1v11.875l-.5 1zM10.5 19.25v1h2l-1.25 6.925.975.175 1.275-7.1h2.999l1.275 7.1.975-.175-1.25-6.925h2v-1h-2.175l-.575-3.3a3.02 3.02 0 0 0 1.25-2.45 2.985 2.985 0 0 0-2.5-2.95v-3.3h-1v3.3c-1.425.25-2.5 1.475-2.5 2.95 0 .975.475 1.875 1.25 2.45l-.575 3.3h-2.175zm3.55-4A1.996 1.996 0 0 1 13 13.5a2.006 2.006 0 0 1 1.999-2 2.006 2.006 0 0 1 2 2 1.992 1.992 0 0 1-1.04 1.745l-.01.005-.325.175.7 3.825h-2.65l.675-3.825-.3-.175z"/></symbol>
<symbol id="icon-close-btn" viewBox="0 0 32 32"><path fill="#c48f65" d="M17.173 16.073 30.649 2.597a.78.78 0 0 0-1.103-1.099L16.072 14.974 2.596 1.498a.777.777 0 0 0-1.098 1.1l13.476 13.474L1.498 29.548a.78.78 0 1 0 1.101 1.099l.001-.001L16.076 17.17l13.472 13.476a.775.775 0 0 0 1.102 0 .775.775 0 0 0 0-1.1L17.174 16.072z" style="fill:var(--color5, #c48f65)"/></symbol>
<symbol id="icon-circle" viewBox="0 0 32 32"><path fill="none" stroke="#cdcdcd" stroke-width="2.909" d="M30.545 16c0 8.033-6.512 14.545-14.545 14.545S1.455 24.033 1.455 16C1.455 7.967 7.967 1.455 16 1.455S30.545 7.967 30.545 16z" style="stroke:var(--color7, #cdcdcd)"/></symbol>
<symbol id="icon-arrow-top-right-icon" viewBox="0 0 29 32"><path fill="#cf9b74" d="M25.52 2.976a1.603 1.603 0 0 0-1.817-1.356l.009-.001-14.259 2.01a1.601 1.601 0 1 0 .458 3.167l-.009.001 12.672-1.786 1.786 12.675a1.6 1.6 0 0 0 3.167-.455l.001.008-2.006-14.256zM4.477 31.696l20.736-27.53-2.557-1.926L1.92 29.77l2.56 1.923z" style="fill:var(--color8, #cf9b74)"/></symbol>
<symbol id="icon-arrow-right-list" viewBox="0 0 26 32"><path d="M25.414 17.414c.362-.362.586-.862.586-1.414s-.224-1.052-.586-1.414L12.686 1.858a2 2 0 0 0-2.825 2.829l-.001-.001L21.172 16 9.858 27.314a2 2 0 1 0 2.827 2.829l.001-.001 12.728-12.728zM0 18h24v-4H0v4z"/></symbol>
<symbol id="icon-arrow-right-down-icon" viewBox="0 0 21 32"><path fill="#f8f3ef" d="M12.808 30.56a1.334 1.334 0 0 0 1.749-.693l.003-.009 4.725-11.029a1.333 1.333 0 1 0-2.447-1.059l-.003.009-4.203 9.805-9.803-4.203a1.333 1.333 0 1 0-1.059 2.447l.009.003 11.029 4.728zM1.429 3.163 12.096 29.83l2.475-.992L3.904 2.171l-2.475.992z" style="fill:var(--color9, #f8f3ef)"/></symbol>
<symbol id="icon-arrow-pop-up" viewBox="0 0 55 32"><path fill="#c48f65" d="M25.006 29.851c.62.62 1.477 1.003 2.423 1.003s1.803-.383 2.423-1.003L51.674 8.034a3.43 3.43 0 1 0-4.85-4.85L27.43 22.583 8.036 3.184a3.43 3.43 0 1 0-4.85 4.85l21.819 21.819zM24 25.143v2.286h6.857v-2.286H24z" style="fill:var(--color5, #c48f65)"/></symbol>
<symbol id="icon-arrow-left-hp-icon" viewBox="0 0 38 32"><path fill="#fff" d="M.586 14.586C.224 14.948 0 15.448 0 16s.224 1.052.586 1.414l12.728 12.728a2 2 0 0 0 2.827-2.829l.001.001L4.828 16 16.142 4.686a2 2 0 0 0-2.829-2.825l.001-.001L.586 14.586zM38 14H2v4h36v-4z" style="fill:var(--color1, #fff)"/></symbol>
</defs></svg>